<svg xmlns="http://www.w3.org/2000/svg" width="97" height="47" viewBox="0 0 97 47"><g fill="none" fill-rule="evenodd"><path fill="#004C9B" d="M0 46.924h91.866V7.814H0z"/><path fill="#FFDC00" d="M84.046 39.109h12.927V0H84.046z"/><path d="M13.108 18.828h-3.063l-.125-.123v-2.667l.12-.131h3.068c1.12 0 1.619.45 1.619 1.46s-.5 1.461-1.62 1.461zm1.344 1.645c1.118-.27 2.374-1.252 2.374-3.106 0-2.032-1.39-3.245-3.718-3.245h-5.16l-.128.128v10.627l.128.129h1.843l.129-.129v-4.113l.133-.15 1.705.004.275.15 3.147 4.09.294.148h.91l.128-.129v-1.532l-2.06-2.689v-.183zm4.683 7.618c2.242 0 2.827-1.446 3.408-2.898l2.508-6.266v-1.539l-.128-.128H23.55l-.135.135-1.915 5.424h-.184l-1.91-5.424-.134-.135h-1.373l-.128.128v1.539l2.511 6.127-.002.173c-.15.567-.34 1.107-1.145 1.079h-.925l-.128.129v1.527l.128.129h.925zm8.92-7.814c0-.386.247-1.39 1.46-1.39 1.215 0 1.463 1.03 1.463 1.385l-.12.125H28.18l-.125-.12zm5.051 1.591l.128-.128v-.607c0-2.975-2.003-4.03-3.718-4.03-1.715 0-3.719 1.055-3.719 4.03 0 1.858 1.015 4.03 3.876 4.03 2.617 0 3.143-1.719 3.244-2.288l-.125-.125H30.95l-.137.137c-.155.298-.6.49-1.139.49-1.344 0-1.619-1.007-1.619-1.38l.12-.129h4.932zm3.53-3.9l-.194-.574-.134-.134H34.62l-.128.128v7.49l.128.128h1.843l.129-.129v-3.745c0-1.483.514-2.088 1.775-2.088h1.079l.128-.128v-1.528l-.128-.128h-.922c-1.44 0-1.744.703-1.747.709h-.143zm7.751 2.428c-.16-.027-.322-.049-.478-.07-.776-.107-1.447-.2-1.447-.762 0-.564.44-.676 1.148-.676.779 0 1.134.154 1.148.498l.128.129h1.844l.127-.128c-.011-1.41-1.253-2.284-3.247-2.284-2.033 0-3.247.861-3.247 2.304 0 1.308.99 2.136 2.941 2.462l.354.055c.757.114 1.257.19 1.257.777 0 .606-.744.677-1.305.677-.67 0-1.292-.1-1.304-.813l-.129-.129h-1.843l-.128.129c.01 1.602 1.313 2.597 3.404 2.597 1.646 0 3.405-.646 3.405-2.46 0-1.868-1.775-2.164-2.628-2.306m7.393 2.982c-1.128 0-1.776-.819-1.776-2.245 0-1.427.648-2.246 1.776-2.246 1.128 0 1.775.819 1.775 2.246 0 1.426-.647 2.245-1.775 2.245m0-6.275c-2.354 0-3.876 1.582-3.876 4.03 0 2.448 1.522 4.03 3.876 4.03s3.875-1.582 3.875-4.03c0-2.448-1.52-4.03-3.875-4.03m10.402 7.903h1.843l.128-.13v-4.685c0-1.905-1.124-3.088-2.934-3.088-.808 0-1.568.284-2.074.845h-.142l-.181-.554-.134-.134H57l-.128.128v7.489l.128.129h1.843l.129-.13v-3.9c0-1.386.597-2.089 1.776-2.089.853 0 1.304.506 1.304 1.461v4.529l.129.129zm-45.67 3.336l-.128-.128H14.54l-.128.128v6.568c0 1.698-.756 2.559-2.247 2.559-1.49 0-2.246-.861-2.246-2.559v-6.568l-.129-.128H7.948l-.128.128v6.568c0 2.801 1.543 4.344 4.346 4.344s4.346-1.543 4.346-4.344v-6.568zm10.54-.128l-.128.128v1.528l.128.128h1.844l.128-.128v-1.528l-.128-.128zm1.843 10.883l.129-.129v-7.489l-.129-.128h-1.843l-.128.128v7.489l.128.129zm7.167-7.746l-.135.135-1.928 4.97h-.157l-1.924-4.97-.135-.135h-1.372l-.128.128v1.538l2.66 5.943.137.137h1.686l.136-.137 2.66-5.943v-1.538l-.128-.128zm20.796 3.137c-.161-.027-.322-.05-.478-.071-.776-.107-1.446-.2-1.446-.762 0-.563.439-.676 1.147-.676.779 0 1.134.154 1.148.499l.128.128H59.2l.129-.128c-.012-1.41-1.254-2.284-3.248-2.284-2.033 0-3.247.861-3.247 2.304 0 1.309.99 2.137 2.942 2.462l.353.056c.757.114 1.257.19 1.257.777 0 .606-.745.676-1.305.676-.671 0-1.293-.099-1.304-.813l-.129-.128h-1.843l-.128.128c.011 1.603 1.313 2.598 3.404 2.598 1.646 0 3.405-.647 3.405-2.461 0-1.868-1.775-2.163-2.628-2.305m5.858 4.609l.129-.129v-7.489l-.129-.128h-1.843l-.128.128v7.489l.128.129zm-1.843-10.883l-.128.128v1.528l.128.128h1.843l.128-.128v-1.528l-.128-.128zm7.106 10.883h1.393l.128-.129V37.44l-.128-.128h-1.393c-.34 0-.52-.18-.52-.52v-3.529l.127-.127h1.786l.128-.128v-1.529l-.128-.128h-1.79l-.123-.126v-1.472l-.128-.128h-1.843l-.129.128v1.472l-.13.126h-1.154l-.129.128v1.529l.129.128h1.162l.122.125v3.531c0 2.08 1.832 2.305 2.62 2.305m-44.599 0h1.844l.128-.129v-4.686c0-1.904-1.124-3.088-2.934-3.088-.809 0-1.569.285-2.074.846H20.2l-.18-.555-.135-.134H18.2l-.128.128v7.49l.128.128h1.843l.128-.129v-3.901c0-1.386.598-2.088 1.776-2.088.854 0 1.305.505 1.305 1.46v4.53l.128.128zm17.146-4.729c0-.385.248-1.39 1.461-1.39 1.214 0 1.462 1.03 1.462 1.385l-.119.125h-2.679l-.125-.12zm5.051 1.591l.129-.128v-.607c0-2.974-2.003-4.03-3.719-4.03-1.715 0-3.718 1.056-3.718 4.03 0 1.858 1.015 4.03 3.875 4.03 2.617 0 3.143-1.719 3.244-2.288l-.124-.125H43.42l-.137.138c-.154.298-.6.49-1.139.49-1.344 0-1.618-1.008-1.618-1.38l.12-.13h4.931zm3.53-3.9l-.194-.574-.134-.134h-1.687l-.128.128v7.49l.128.128h1.844l.128-.128v-3.745c0-1.484.514-2.088 1.775-2.088h1.079l.128-.129V31.48l-.128-.128h-.922c-1.44 0-1.743.703-1.747.709h-.142zm22.708 10.123c2.242 0 2.827-1.446 3.408-2.898l2.508-6.266V31.48l-.128-.128H76.23l-.135.135-1.915 5.424h-.184l-1.91-5.424-.134-.135h-1.373l-.128.128v1.54l2.511 6.126-.002.173c-.179.574-.414 1.08-1.145 1.08h-.765l-.128.128v1.528l.128.128h.765z" fill="#FFF"/></g></svg>